<svg xmlns="http://www.w3.org/2000/svg" xmlns:xlink="http://www.w3.org/1999/xlink" viewBox="0 0 1218.1 367.62"><defs><style>.cls-1{fill:none;stroke-miterlimit:10;stroke-width:3.28px;stroke:url(#linear-gradient);}.cls-2{fill:#666;}.cls-3{fill:#333;}</style><linearGradient id="linear-gradient" x1="883.39" y1="183.81" x2="1251.01" y2="183.81" gradientTransform="matrix(-1, 0, 0, 1, 1251.01, 0)" gradientUnits="userSpaceOnUse"><stop offset="0" stop-color="#999"/><stop offset="1" stop-color="#333"/></linearGradient></defs><g id="Layer_2" data-name="Layer 2"><g id="Layer_1-2" data-name="Layer 1"><circle class="cls-1" cx="183.81" cy="183.81" r="182.17"/><polygon class="cls-2" points="123.33 228.37 97.83 187.75 180.01 72.49 233.24 72.49 233.24 72.81 123.33 228.37"/><polygon class="cls-2" points="123.33 228.37 138.45 178.3 216.86 178.3 216.86 228.37 123.33 228.37"/><polygon class="cls-3" points="216.86 295.13 216.86 178.3 217.18 178.3 269.13 221.44 269.13 295.13 216.86 295.13"/><path d="M474.74,206.29v6H456.57v28.91H450V212.27h-52.6v-3.79L449.16,131h7.41v75.31Zm-24.75,0v-67l-5.3,8.93-38.67,58Z"/><path d="M527.71,159.29h30v5.83h-30v54.72a21.09,21.09,0,0,0,1.59,7.94,13.16,13.16,0,0,0,4,5.15,16.39,16.39,0,0,0,6,2.84,30.76,30.76,0,0,0,7.53.87c1.41,0,2.82,0,4.2-.12s2.77-.19,4.13-.34c.85-.1,1.73-.21,2.61-.34l2.38-.34,1.06,5.38a19,19,0,0,1-2.61.75c-.93.2-1.93.38-3,.53q-2.26.3-4.62.42c-1.56.07-3.15.11-4.76.11a39,39,0,0,1-10-1.21,20.78,20.78,0,0,1-7.91-3.93,18.56,18.56,0,0,1-5.34-7.08,27.12,27.12,0,0,1-2-10.63V165.12H497.52v-5.83H521V137.72h6.81Z"/><path d="M603.36,169.7a32.18,32.18,0,0,1,6.32-6,29.91,29.91,0,0,1,8.4-4.35,30.55,30.55,0,0,1,9.84-1.55A31.23,31.23,0,0,1,640,159.93a22.33,22.33,0,0,1,8.59,6.17,26,26,0,0,1,5.19,9.73,46.53,46.53,0,0,1,1.77,12.75v52.6h-6.66V188.5a37.57,37.57,0,0,0-1.28-10.1,21.4,21.4,0,0,0-3.94-7.83,18.29,18.29,0,0,0-6.92-5.07,24.23,24.23,0,0,0-10-1.75,26.86,26.86,0,0,0-9.65,1.93,32.19,32.19,0,0,0-8.36,5,31.43,31.43,0,0,0-6.21,7.15,30.15,30.15,0,0,0-3.78,8.67v54.72h-6.66V124.93h6.66v52.22A37.21,37.21,0,0,1,603.36,169.7Z"/><path d="M700.5,241.18H682.34V131h36.85a48.11,48.11,0,0,1,15.33,2.5,35.69,35.69,0,0,1,12.07,6.89,30.77,30.77,0,0,1,7.87,10.82,35.1,35.1,0,0,1,2.8,14.31,33,33,0,0,1-2.8,13.81,30.54,30.54,0,0,1-7.87,10.56,35.67,35.67,0,0,1-12.07,6.88,46.5,46.5,0,0,1-15.33,2.42H700.5Zm18.69-56.84a24.1,24.1,0,0,0,8.29-1.48,18,18,0,0,0,6.24-3.89,16.39,16.39,0,0,0,3.9-5.91,20.12,20.12,0,0,0,1.33-7.41,22.82,22.82,0,0,0-1.33-8,17.29,17.29,0,0,0-10.14-10.33,23.63,23.63,0,0,0-8.29-1.51H700.5v38.52Z"/><path d="M822.05,159.29v66.9h24.07v15H778.61v-15h25.2V174.35h-25.2V159.29ZM802.9,134.05a9.17,9.17,0,0,1,2.19-3.22,9.6,9.6,0,0,1,3.3-2,12.32,12.32,0,0,1,4.35-.72,10.09,10.09,0,0,1,6.62,2.08,7.83,7.83,0,0,1,2.91,5.33,7.74,7.74,0,0,1-1.13,5.79,8.1,8.1,0,0,1-4.84,3.3,7.92,7.92,0,0,1-3.79,1.89,9.55,9.55,0,0,1-4.84-.38,7.23,7.23,0,0,1-4.13-3,9.05,9.05,0,0,1-1.4-5A10.51,10.51,0,0,1,802.9,134.05Z"/><path d="M915.06,124.93V226.19h24.83v15H870.94v-15h25.88V140H870.94V124.93Z"/><path d="M1008.08,124.93V226.19h24.82v15H964v-15h25.88V140H964V124.93Z"/><path d="M1104.46,237.51c-.33-1.44-.62-2.94-.87-4.51a33.49,33.49,0,0,1-4.28,3.75,26.59,26.59,0,0,1-5.33,3.07,32.3,32.3,0,0,1-6.36,2.12,34.11,34.11,0,0,1-7.34.75,34.92,34.92,0,0,1-11.62-1.85,27.28,27.28,0,0,1-9-5.11,22,22,0,0,1-5.86-7.68,22.88,22.88,0,0,1-2.08-9.73,25.56,25.56,0,0,1,2.68-11.92,22.84,22.84,0,0,1,7.84-8.59A36.13,36.13,0,0,1,1074,193a68.67,68.67,0,0,1,15.85-1.67h13.17v-5.52A14.52,14.52,0,0,0,1102,180a12.9,12.9,0,0,0-3.14-4.47,15.29,15.29,0,0,0-5.33-2.91,23.46,23.46,0,0,0-7.23-1,20.93,20.93,0,0,0-6.47.9,13.12,13.12,0,0,0-4.58,2.5,8.73,8.73,0,0,0-2.69,3.52,11.36,11.36,0,0,0-.87,4.43h-18.16a21.67,21.67,0,0,1,2.34-9.46,23.94,23.94,0,0,1,6.66-8,31.61,31.61,0,0,1,10.49-5.64,44.92,44.92,0,0,1,14.26-2.08,49.12,49.12,0,0,1,13.44,1.77,32,32,0,0,1,10.78,5.26,24.24,24.24,0,0,1,7.12,8.82,28.08,28.08,0,0,1,2.57,12.3v36.4a56.74,56.74,0,0,0,.79,10,30,30,0,0,0,2.31,7.6v1.29h-18.46A14,14,0,0,1,1104.46,237.51Zm-14.08-10.26a25.47,25.47,0,0,0,5.57-2.34,20.75,20.75,0,0,0,4.31-3.26,14.78,14.78,0,0,0,2.8-3.78V202.73h-11.65a41.85,41.85,0,0,0-10.22,1.1,18.21,18.21,0,0,0-6.89,3.14,10.91,10.91,0,0,0-3.37,4.16,13.1,13.1,0,0,0-1.09,5.45,12,12,0,0,0,.9,4.66,10,10,0,0,0,2.65,3.67,12.63,12.63,0,0,0,4.32,2.38,18.89,18.89,0,0,0,6,.87A23,23,0,0,0,1090.38,227.25Z"/><path d="M1211.63,158.38a35.65,35.65,0,0,1,6.47,1.44l-2.57,17.86a82.12,82.12,0,0,0-8.21-1.36,70.64,70.64,0,0,0-8.06-.46,34.06,34.06,0,0,0-8.18.91,20.14,20.14,0,0,0-6.43,2.8,17.92,17.92,0,0,0-5.15,4.62,27.38,27.38,0,0,0-3.56,6.43v50.56h-18.08V159.29h17l.76,11.35.07,1.89a37.3,37.3,0,0,1,12-10.82,31,31,0,0,1,15.47-3.93A59.14,59.14,0,0,1,1211.63,158.38Z"/></g></g></svg>