<svg xmlns="http://www.w3.org/2000/svg" xmlns:xlink="http://www.w3.org/1999/xlink" viewBox="0 0 1214.05 361.55"><defs><style>.cls-1{fill:#010314;}.cls-2{fill:none;stroke-miterlimit:10;stroke-width:3.23px;stroke:url(#linear-gradient);}.cls-3{fill:#ccc;}.cls-4{fill:#999;}</style><linearGradient id="linear-gradient" x1="881.37" y1="180.77" x2="1242.92" y2="180.77" gradientTransform="matrix(-1, 0, 0, 1, 1242.92, 0)" gradientUnits="userSpaceOnUse"><stop offset="0" stop-color="#e6e6e6"/><stop offset="1" stop-color="#010314"/></linearGradient></defs><g id="Layer_2" data-name="Layer 2"><g id="Layer_1-2" data-name="Layer 1"><path class="cls-1" d="M470.69,203.31v6H452.52V238.2h-6.58V209.29h-52.6v-3.78L445.11,128h7.41v75.3Zm-24.75,0v-67l-5.3,8.93L402,203.31Z"/><path class="cls-1" d="M523.67,156.31h30v5.83h-30v54.72a20.91,20.91,0,0,0,1.59,7.95,13,13,0,0,0,4,5.14,16.23,16.23,0,0,0,6,2.84,30.76,30.76,0,0,0,7.53.87c1.42,0,2.82,0,4.21-.11s2.76-.19,4.12-.34c.86-.1,1.73-.22,2.61-.34l2.39-.34,1.06,5.37a20.23,20.23,0,0,1-2.62.76c-.93.2-1.93.37-3,.53-1.51.2-3.05.34-4.61.41s-3.16.12-4.77.12a39.5,39.5,0,0,1-10-1.21,20.66,20.66,0,0,1-7.91-3.94,18.36,18.36,0,0,1-5.33-7.08,26.89,26.89,0,0,1-2-10.63V162.14H493.47v-5.83h23.46V134.74h6.81Z"/><path class="cls-1" d="M599.31,166.72a32.48,32.48,0,0,1,6.32-6,30.44,30.44,0,0,1,8.4-4.35,30.83,30.83,0,0,1,9.84-1.55A31.19,31.19,0,0,1,635.94,157a22.21,22.21,0,0,1,8.59,6.16,26,26,0,0,1,5.19,9.73,46.51,46.51,0,0,1,1.78,12.75v52.6h-6.66V185.53a37.24,37.24,0,0,0-1.29-10.11,21.4,21.4,0,0,0-3.94-7.83,18.29,18.29,0,0,0-6.92-5.07,24.37,24.37,0,0,0-10-1.74,26.44,26.44,0,0,0-9.65,1.93,30.1,30.1,0,0,0-14.57,12.11,30.49,30.49,0,0,0-3.78,8.66V238.2H588V122h6.66v52.22A37.5,37.5,0,0,1,599.31,166.72Z"/><path class="cls-1" d="M696.45,238.2H678.29V128h36.86a47.77,47.77,0,0,1,15.32,2.5,35.67,35.67,0,0,1,12.07,6.88,30.74,30.74,0,0,1,7.87,10.82,35.1,35.1,0,0,1,2.81,14.31,33,33,0,0,1-2.81,13.81,30.41,30.41,0,0,1-7.87,10.56,35.69,35.69,0,0,1-12.07,6.89,46.7,46.7,0,0,1-15.32,2.42h-18.7Zm18.7-56.84a24,24,0,0,0,8.28-1.47,18,18,0,0,0,6.25-3.9,16.38,16.38,0,0,0,3.89-5.9,20.14,20.14,0,0,0,1.33-7.42,22.72,22.72,0,0,0-1.33-8,17.15,17.15,0,0,0-10.14-10.33,23.57,23.57,0,0,0-8.28-1.52h-18.7v38.52Z"/><path class="cls-1" d="M818,156.31v66.91h24.07v15H774.56v-15h25.2V171.37h-25.2V156.31Zm-19.15-25.24a9.16,9.16,0,0,1,2.2-3.21,9.58,9.58,0,0,1,3.29-2,12.4,12.4,0,0,1,4.35-.72,10.13,10.13,0,0,1,6.62,2.08,7.89,7.89,0,0,1,2.92,5.34,7.8,7.8,0,0,1-1.14,5.79,8,8,0,0,1-4.84,3.29,7.87,7.87,0,0,1-3.79,1.89,9.45,9.45,0,0,1-4.84-.38,7.18,7.18,0,0,1-4.12-3,9,9,0,0,1-1.4-5A10.73,10.73,0,0,1,798.85,131.07Z"/><path class="cls-1" d="M911,122V223.22h24.82v15h-69v-15h25.89V137H866.89V122Z"/><path class="cls-1" d="M1004,122V223.22h24.82v15H959.91v-15h25.88V137H959.91V122Z"/><path class="cls-1" d="M1100.41,234.53q-.5-2.16-.87-4.5a35,35,0,0,1-4.27,3.75,27.14,27.14,0,0,1-5.34,3.06,31.66,31.66,0,0,1-6.36,2.12,34.1,34.1,0,0,1-7.34.76,34.67,34.67,0,0,1-11.62-1.86,27,27,0,0,1-9-5.11,21.9,21.9,0,0,1-5.87-7.68,22.83,22.83,0,0,1-2.08-9.72,25.54,25.54,0,0,1,2.69-11.92,22.74,22.74,0,0,1,7.83-8.59A36.14,36.14,0,0,1,1070,190a68.7,68.7,0,0,1,15.85-1.66H1099V182.8a14.55,14.55,0,0,0-1.09-5.75,13,13,0,0,0-3.15-4.46,15.15,15.15,0,0,0-5.33-2.92,23.37,23.37,0,0,0-7.23-1,20.62,20.62,0,0,0-6.47.91,13,13,0,0,0-4.58,2.5,8.7,8.7,0,0,0-2.69,3.51,11.4,11.4,0,0,0-.87,4.43h-18.16a21.58,21.58,0,0,1,2.35-9.46,23.71,23.71,0,0,1,6.66-8,31.74,31.74,0,0,1,10.48-5.64,45,45,0,0,1,14.27-2.08,48.66,48.66,0,0,1,13.43,1.78,31.71,31.71,0,0,1,10.78,5.26,24.2,24.2,0,0,1,7.12,8.81,28.08,28.08,0,0,1,2.57,12.3v36.41a56.56,56.56,0,0,0,.8,9.95,30.13,30.13,0,0,0,2.3,7.61v1.28h-18.46A14,14,0,0,1,1100.41,234.53Zm-14.07-10.25a26.11,26.11,0,0,0,5.56-2.35,20.71,20.71,0,0,0,4.31-3.25,14.59,14.59,0,0,0,2.8-3.79V199.76h-11.65a42,42,0,0,0-10.22,1.09,18.21,18.21,0,0,0-6.89,3.14,10.83,10.83,0,0,0-3.36,4.17,12.91,12.91,0,0,0-1.1,5.45,11.79,11.79,0,0,0,.91,4.65,9.7,9.7,0,0,0,2.65,3.67,12.6,12.6,0,0,0,4.31,2.39,18.89,18.89,0,0,0,6,.87A23.5,23.5,0,0,0,1086.34,224.28Z"/><path class="cls-1" d="M1207.58,155.4a36.53,36.53,0,0,1,6.47,1.44l-2.57,17.86a81.64,81.64,0,0,0-8.21-1.36,73,73,0,0,0-8.06-.45,33.62,33.62,0,0,0-8.18.91,20,20,0,0,0-6.43,2.8,18.17,18.17,0,0,0-5.15,4.61,26.88,26.88,0,0,0-3.55,6.44V238.2h-18.09V156.31h17l.76,11.36.07,1.89a37.3,37.3,0,0,1,12-10.82,31,31,0,0,1,15.48-3.94A59.1,59.1,0,0,1,1207.58,155.4Z"/><circle class="cls-2" cx="180.77" cy="180.77" r="179.16"/><polygon class="cls-3" points="121.29 225.25 96.21 185.29 177.04 71.95 229.38 71.95 229.38 72.25 121.29 225.25"/><polygon class="cls-3" points="121.29 225.25 136.16 176 213.28 176 213.28 225.25 121.29 225.25"/><polygon class="cls-4" points="213.28 290.9 213.28 176 213.59 176 264.69 218.43 264.69 290.9 213.28 290.9"/></g></g></svg>