<svg xmlns="http://www.w3.org/2000/svg" xmlns:xlink="http://www.w3.org/1999/xlink" viewBox="0 0 1505.93 750"><defs><style>.cls-1{fill:url(#linear-gradient);}.cls-10,.cls-11,.cls-12,.cls-13,.cls-14,.cls-15,.cls-16,.cls-17,.cls-18,.cls-19,.cls-2,.cls-20,.cls-21,.cls-22,.cls-23,.cls-24,.cls-25,.cls-26,.cls-27,.cls-28,.cls-29,.cls-3,.cls-30,.cls-31,.cls-32,.cls-33,.cls-34,.cls-35,.cls-36,.cls-37,.cls-38,.cls-39,.cls-4,.cls-40,.cls-41,.cls-42,.cls-43,.cls-45,.cls-5,.cls-6,.cls-7,.cls-8,.cls-9{fill:none;stroke-miterlimit:10;}.cls-10,.cls-11,.cls-12,.cls-13,.cls-14,.cls-15,.cls-16,.cls-17,.cls-18,.cls-19,.cls-2,.cls-20,.cls-21,.cls-22,.cls-23,.cls-24,.cls-25,.cls-26,.cls-27,.cls-28,.cls-29,.cls-3,.cls-30,.cls-31,.cls-32,.cls-33,.cls-34,.cls-35,.cls-36,.cls-37,.cls-38,.cls-39,.cls-4,.cls-40,.cls-41,.cls-42,.cls-43,.cls-5,.cls-6,.cls-7,.cls-8,.cls-9{stroke:#fff;}.cls-2{stroke-width:0.5px;opacity:0;}.cls-3{stroke-width:0.51px;opacity:0.02;}.cls-4{stroke-width:0.51px;opacity:0.05;}.cls-5{stroke-width:0.52px;opacity:0.07;}.cls-6{stroke-width:0.52px;opacity:0.1;}.cls-7{stroke-width:0.53px;opacity:0.12;}.cls-8{stroke-width:0.54px;opacity:0.15;}.cls-9{stroke-width:0.54px;opacity:0.17;}.cls-10{stroke-width:0.55px;opacity:0.2;}.cls-11{stroke-width:0.55px;opacity:0.22;}.cls-12{stroke-width:0.56px;opacity:0.24;}.cls-13{stroke-width:0.57px;opacity:0.27;}.cls-14{stroke-width:0.57px;opacity:0.29;}.cls-15{stroke-width:0.58px;opacity:0.32;}.cls-16{stroke-width:0.59px;opacity:0.34;}.cls-17{stroke-width:0.59px;opacity:0.37;}.cls-18{stroke-width:0.6px;opacity:0.39;}.cls-19{stroke-width:0.6px;opacity:0.41;}.cls-20{stroke-width:0.61px;opacity:0.44;}.cls-21{stroke-width:0.62px;opacity:0.46;}.cls-22{stroke-width:0.62px;opacity:0.49;}.cls-23{stroke-width:0.63px;opacity:0.51;}.cls-24{stroke-width:0.63px;opacity:0.54;}.cls-25{stroke-width:0.64px;opacity:0.56;}.cls-26{stroke-width:0.65px;opacity:0.59;}.cls-27{stroke-width:0.65px;opacity:0.61;}.cls-28{stroke-width:0.66px;opacity:0.63;}.cls-29{stroke-width:0.66px;opacity:0.66;}.cls-30{stroke-width:0.67px;opacity:0.68;}.cls-31{stroke-width:0.68px;opacity:0.71;}.cls-32{stroke-width:0.68px;opacity:0.73;}.cls-33{stroke-width:0.69px;opacity:0.76;}.cls-34{stroke-width:0.69px;opacity:0.78;}.cls-35{stroke-width:0.7px;opacity:0.8;}.cls-36{stroke-width:0.71px;opacity:0.83;}.cls-37{stroke-width:0.71px;opacity:0.85;}.cls-38{stroke-width:0.72px;opacity:0.88;}.cls-39{stroke-width:0.73px;opacity:0.9;}.cls-40{stroke-width:0.73px;opacity:0.93;}.cls-41{stroke-width:0.74px;opacity:0.95;}.cls-42{stroke-width:0.74px;opacity:0.98;}.cls-43{stroke-width:0.75px;}.cls-44{fill:#e6e6e6;}.cls-45{stroke-width:0.95px;stroke:url(#linear-gradient-2);}.cls-46{fill:#ccc;}.cls-47{fill:#999;}</style><linearGradient id="linear-gradient" x1="0.68" y1="375" x2="1500.68" y2="375" gradientUnits="userSpaceOnUse"><stop offset="0" stop-color="#fff"/><stop offset="1"/></linearGradient><linearGradient id="linear-gradient-2" x1="296.75" y1="375.3" x2="403.63" y2="375.3" gradientTransform="matrix(-1, 0, 0, 1, 1502.42, 0)" gradientUnits="userSpaceOnUse"><stop offset="0" stop-color="#e6e6e6"/><stop offset="1" stop-color="#333"/></linearGradient></defs><g id="Layer_2" data-name="Layer 2"><g id="Layer_1-2" data-name="Layer 1"><rect class="cls-1" x="0.68" width="1500" height="750"/></g><g id="Layer_2-2" data-name="Layer 2"><path class="cls-2" d="M.68,307C108,261.68,247.41,224,346.34,288c92,59.52,89,168.21,156.84,180,112.63,19.59,201.9-266.19,308.69-251,102.49,14.57,80.65,286.32,219.78,354,81.84,39.81,220.88,9.76,467.54-204"/><path class="cls-3" d="M.67,309.72c108.83-41.91,247.57-77.62,346.83-16.2,94.28,58.35,93.78,160.7,163.93,173.2,111.78,19.92,200.08-257.93,307-243.15C920,237.77,899,502.76,1036.25,568.38c81.37,38.91,219.45,9.85,463.1-196.15"/><path class="cls-4" d="M.66,312.44c110.34-38.5,248.47-72.27,348-13.39,96.61,57.16,98.53,153.18,171,166.39,110.94,20.22,198.26-249.66,305.23-235.29,100.71,13.81,80.6,272,215.93,335.61,80.92,38,218,9.93,458.67-188.3"/><path class="cls-5" d="M.65,315.16c111.85-35.09,249.43-67,349.16-10.59,99,56,103.27,145.66,178.12,159.59C638,484.65,724.4,222.54,831.43,236.72c99.84,13.23,80.59,264.89,214,326.41,80.47,37.11,216.61,10,454.23-180.43"/><path class="cls-6" d="M.63,317.88C114,286.2,251.09,256.15,351,310.1c101.41,54.77,108,138.12,185.2,152.78C645.45,483.62,730.84,229.45,838,243.29c99,12.79,80.59,257.73,212.08,317.22,80,36.21,215.18,10.11,449.79-172.58"/><path class="cls-7" d="M.62,320.6c114.87-28.28,251.53-56.52,351.5-5,103.89,53.56,112.76,130.59,192.3,146,108.45,21,192.85-225.24,300-211.73,98.08,12.35,80.61,250.55,210.16,308,79.58,35.3,213.76,10.2,445.36-164.73"/><path class="cls-8" d="M.61,323.32C117,298.45,253.26,272,353.28,321.15c106.4,52.33,117.5,123.05,199.39,139.17,107.62,21.18,191-217,298.31-203.88,97.2,11.92,80.62,243.37,208.23,298.83,79.15,34.39,212.34,10.29,440.93-156.88"/><path class="cls-9" d="M.6,326c117.88-21.46,253.82-46.26,353.84.63,109,51.08,122.24,115.5,206.48,132.37C667.71,480.42,750.15,250.2,857.5,263c96.31,11.5,80.65,236.18,206.31,289.64,78.71,33.48,210.91,10.37,436.49-149"/><path class="cls-10" d="M.58,328.76c119.4-18.05,255-41.2,355,3.44,111.55,49.8,127,107.94,213.56,125.56,106,21.55,187.42-200.64,294.86-188.17,95.43,11.06,80.68,229,204.38,280.43,78.29,32.58,209.49,10.47,432.06-141.17"/><path class="cls-11" d="M.57,331.48c120.9-14.64,256.29-36.19,356.18,6.24,114.19,48.5,131.74,100.39,220.66,118.76C682.57,478.2,763,264.05,870.54,276.16,965.08,286.81,951.26,497.92,1073,547.4c77.87,31.66,208.07,10.55,427.62-133.31"/><path class="cls-12" d="M.56,334.2C123,323,258.13,303,357.91,343.24c116.85,47.17,136.48,92.82,227.75,112C690,477.07,769.45,271,877.05,282.73c93.66,10.23,80.79,214.53,200.53,262,77.46,30.74,206.65,10.64,423.19-125.46"/><path class="cls-13" d="M.55,336.91c123.92-7.82,258.89-26.31,358.52,11.86C478.62,394.57,500.3,434,593.91,453.91c103.52,22,182-176,289.66-164.61,92.77,9.82,80.85,207.29,198.61,252.86,77,29.81,205.22,10.73,418.75-117.61"/><path class="cls-14" d="M.54,339.63c125.42-4.41,260.23-21.44,359.69,14.66,122.28,44.4,146,77.67,241.93,98.34,102.71,22.14,180.16-167.78,287.93-156.75,91.88,9.4,80.92,200,196.68,243.66,76.64,28.88,203.8,10.81,414.32-109.76"/><path class="cls-15" d="M.52,342.35c126.94-1,261.62-16.62,360.86,17.47,125.05,42.95,150.73,70.07,249,91.53,101.91,22.25,178.35-159.56,286.21-148.9,91,9,81,192.77,194.75,234.46,76.25,28,202.38,10.91,409.89-101.9"/><path class="cls-16" d="M.51,345.07c128.45,2.41,263-11.85,362,20.27C490.38,406.81,518,427.82,618.65,450.07c101.1,22.36,176.53-151.34,284.47-141,90.11,8.6,81.1,185.49,192.84,225.27,75.85,27,201,11,405.45-94"/><path class="cls-17" d="M.5,347.79c130,5.82,264.43-7.11,363.2,23.08,130.65,39.93,160.23,54.87,263.2,77.92C727.19,471.24,801.61,305.68,909.64,315.6c89.22,8.19,81.2,178.18,190.91,216.07,75.47,26.06,199.53,11.08,401-86.19"/><path class="cls-18" d="M.49,350.51c131.46,9.22,265.87-2.42,364.37,25.88,133.48,38.36,165,47.27,270.29,71.12,99.48,22.54,172.89-134.88,281-125.34,88.33,7.8,81.31,170.87,189,206.88,75.09,25.11,198.11,11.16,396.58-78.34"/><path class="cls-19" d="M.48,353.23c133,12.63,267.32,2.22,365.53,28.68,136.34,36.73,169.74,39.65,277.39,64.32,98.68,22.62,171.07-126.65,279.28-117.49,87.43,7.41,81.43,163.54,187.06,197.69,74.71,24.15,196.68,11.25,392.14-70.49"/><path class="cls-20" d="M.46,356c134.48,16,268.79,6.83,366.71,31.49,139.2,35.05,174.5,32,284.47,57.51C749.53,467.64,820.9,326.54,929.2,335.32c86.54,7,81.56,156.19,185.13,188.48,74.34,23.19,195.26,11.35,387.71-62.63"/><path class="cls-21" d="M.45,358.67c136,19.45,270.27,11.4,367.88,34.29,142.09,33.32,179.25,24.39,291.56,50.71C757,466.42,827.32,333.5,935.71,341.89c85.66,6.63,81.71,148.83,183.21,179.29,74,22.21,193.84,11.43,383.28-54.78"/><path class="cls-22" d="M.44,361.39c137.5,22.86,271.75,15.94,369.05,37.1,145,31.53,184,16.74,298.65,43.9,96.29,22.81,165.61-101.92,274.09-93.93,84.76,6.25,81.86,141.44,181.28,170.1,73.63,21.22,192.42,11.52,378.85-46.93"/><path class="cls-23" d="M.43,364.11c139,26.26,273.24,20.43,370.21,39.9,147.89,29.69,188.78,9.09,305.75,37.1C771.88,464,840.18,347.44,948.75,355c83.87,5.87,82,134,179.36,160.9,73.27,20.22,191,11.6,374.41-39.07"/><path class="cls-24" d="M.41,366.83c140.52,29.67,274.74,24.9,371.39,42.71,150.8,27.79,193.55,1.43,312.83,30.29,94.7,22.91,162-85.42,270.64-78.22,83,5.5,82.18,126.61,177.43,151.71,72.92,19.21,189.57,11.69,370-31.22"/><path class="cls-25" d="M.4,369.55c142,33.08,276.23,29.33,372.56,45.51,153.72,25.83,198.31-6.23,319.92,23.49C786.79,461.5,853,361.39,961.79,368.18c82.08,5.13,82.36,119.17,175.5,142.52,72.59,18.18,188.15,11.78,365.54-23.37"/><path class="cls-26" d="M.39,372.27C143.92,408.76,278.12,406,374.11,420.59c156.65,23.8,203.09-13.92,327,16.68,93.11,23,158.33-68.89,267.17-62.51,81.2,4.76,82.55,111.7,173.59,133.31,72.25,17.16,186.72,11.87,361.1-15.51"/><path class="cls-27" d="M.38,375c145,39.9,279.22,38.1,374.89,51.12,159.56,21.72,207.86-21.6,334.11,9.88,92.32,23,156.51-60.62,265.44-54.66,80.3,4.4,82.74,104.21,171.66,124.12,71.92,16.1,185.3,12,356.67-7.66"/><path class="cls-28" d="M.37,377.71c146.54,43.3,280.71,42.44,376.06,53.92,162.48,19.58,212.63-29.29,341.2,3.08,91.53,23,154.68-52.35,263.71-46.81,79.41,4,82.93,96.71,169.73,114.93,71.6,15,183.88,12,352.24.19"/><path class="cls-29" d="M.35,380.43c148.06,46.71,282.2,46.75,377.24,56.73,165.39,17.36,217.41-37,348.28-3.73,90.75,23.06,152.87-44.07,262-38.95,78.51,3.68,83.13,89.16,167.81,105.73,71.27,13.94,182.45,12.13,347.8,8.05"/><path class="cls-30" d="M.34,383.15c149.57,50.12,283.68,51,378.4,59.53,168.31,15.09,222.2-44.71,355.38-10.53,90,23.08,151-35.78,260.26-31.1,77.61,3.33,83.34,81.61,165.88,96.54,71,12.83,181,12.21,343.36,15.9"/><path class="cls-31" d="M.33,385.87c151.07,53.53,285.15,55.3,379.57,62.34,171.21,12.75,227-52.44,362.47-17.34,89.17,23.1,149.22-27.49,258.52-23.25,76.73,3,83.55,74,164,87.34,70.65,11.71,179.61,12.31,338.93,23.76"/><path class="cls-32" d="M.32,388.59c152.58,56.94,286.61,59.54,380.74,65.14,174.09,10.35,231.76-60.18,369.56-24.14C839,452.7,898,410.4,1007.41,414.2c75.83,2.63,83.77,66.41,162,78.14,70.34,10.55,178.2,12.4,334.5,31.61"/><path class="cls-33" d="M.3,391.3c154.1,60.35,288.11,72.94,381.92,68,176.89-9.41,236.55-67.93,376.65-31,87.6,23.12,145.57-10.88,255.06-7.53,74.94,2.29,84,58.77,160.11,69,70,9.36,176.77,12.48,330.06,39.46"/><path class="cls-34" d="M.29,394c155.6,63.76,289.63,76.36,383.08,70.76C563,454,624.72,389.1,767.11,427c86.83,23.13,143.76-2.57,253.34.32,74,2,84.19,51.11,158.18,59.76,69.72,8.15,175.35,12.57,325.63,47.31"/><path class="cls-35" d="M.28,396.74c157.11,67.17,291.12,79.72,384.25,73.56,182.3-12.05,246.14-83.44,390.83-44.56,86,23.13,141.93,5.75,251.6,8.17,73.16,1.62,84.41,43.42,156.26,50.57,69.42,6.9,173.93,12.65,321.2,55.17"/><path class="cls-36" d="M.27,399.46c158.61,70.58,292.58,83,385.42,76.37,185-13.28,250.94-91.23,397.92-51.37,85.26,23.13,140.11,14.07,249.87,16,72.27,1.29,84.62,35.69,154.34,41.36,69.1,5.63,172.5,12.75,316.75,63"/><path class="cls-37" d="M.26,402.18c160.12,74,294,86.3,386.59,79.17,187.76-14.45,255.74-99,405-58.17,84.49,23.12,138.29,22.4,248.14,23.88,71.37,1,84.82,27.94,152.41,32.17,68.79,4.3,171.08,12.84,312.32,70.88"/><path class="cls-38" d="M.24,404.9c161.64,77.39,295.14,84.6,387.76,82,191.09-5.41,260.56-106.82,412.11-65,83.71,23.12,136.47,30.74,246.41,31.73,70.48.64,85,20.17,150.48,23,68.48,2.94,169.66,12.92,307.89,78.73"/><path class="cls-39" d="M.23,407.62c163.14,80.8,296.51,88.71,388.93,84.78C583,484.16,654.53,377.77,808.35,420.62,891.29,443.73,943,459.71,1053,460.21c69.58.31,85.22,15.78,148.56,13.78,68.13-2.16,168.23,13,303.45,86.58"/><path class="cls-40" d="M.22,410.34c164.65,84.21,297.86,92.82,390.1,87.59C586.89,486.78,660.5,375.46,816.6,419.34c82.16,23.1,132.83,46.78,242.95,47.44,68.7.41,85.43,7.17,146.64,4.59,67.75-2.87,166.81,13.09,299,94.43"/><path class="cls-41" d="M.21,413.06C166.37,500.68,299.4,510,391.48,503.45c199.28-14.11,275-130.3,433.37-85.39,81.39,23.08,131,55.8,241.22,55.29,67.81-.31,85.53-3.34,144.71-4.61,67.46-1.44,165.39,13.19,294.59,102.3"/><path class="cls-42" d="M.19,415.78c167.67,91,300.52,101,392.44,93.2,202-17.14,279.89-138.36,440.47-92.2,80.64,23,129.19,64.29,239.49,63.15,66.92-.55,85.66-11.24,142.78-13.81,67.09-3,164,13.27,290.15,110.15"/><path class="cls-43" d="M.18,418.5c169.18,94.43,301.82,105.07,393.61,96,204.61-20.21,284.66-146,447.55-99,79.85,23.05,127.38,72.55,237.77,71,66-.93,85.76-19.16,140.86-23,66.68-4.65,162.54,13.36,285.71,118"/><path class="cls-44" d="M1237.93,382v1.76h-5.36v8.55h-2v-8.55h-15.55v-1.12l15.3-22.91h2.2V382Zm-7.31,0v-19.8l-1.57,2.64L1217.62,382Z"/><path class="cls-44" d="M1253.6,368.07h8.86v1.72h-8.86V386a6.09,6.09,0,0,0,.47,2.35,3.81,3.81,0,0,0,1.18,1.52,4.8,4.8,0,0,0,1.78.84,9.16,9.16,0,0,0,2.23.26c.41,0,.83,0,1.24,0s.81,0,1.22-.1l.77-.1.7-.1.32,1.59a5.77,5.77,0,0,1-.77.22c-.28.06-.58.12-.89.16s-.9.1-1.36.12-.94,0-1.41,0a11.51,11.51,0,0,1-3-.36,6.27,6.27,0,0,1-2.34-1.16,5.48,5.48,0,0,1-1.57-2.1,8,8,0,0,1-.6-3.14V369.79h-6.93v-1.72h6.93V361.7h2Z"/><path class="cls-44" d="M1276,371.15a9.29,9.29,0,0,1,1.87-1.78,9,9,0,0,1,2.48-1.29,9.24,9.24,0,0,1,2.91-.46,9.4,9.4,0,0,1,3.57.64,6.75,6.75,0,0,1,2.54,1.83,7.74,7.74,0,0,1,1.53,2.87,13.74,13.74,0,0,1,.52,3.77v15.55h-2V376.71a10.78,10.78,0,0,0-.38-3,6.28,6.28,0,0,0-1.16-2.31,5.28,5.28,0,0,0-2-1.5,7.19,7.19,0,0,0-3-.52,8,8,0,0,0-2.85.57,9.67,9.67,0,0,0-2.48,1.47,9.49,9.49,0,0,0-1.83,2.11,9,9,0,0,0-1.12,2.56v16.18h-2V357.91h2v15.44A10.7,10.7,0,0,1,1276,371.15Z"/><path class="cls-44" d="M1304.67,392.28h-5.37V359.7h10.9a14.53,14.53,0,0,1,4.53.74,10.61,10.61,0,0,1,3.57,2,9.21,9.21,0,0,1,2.33,3.2,10.4,10.4,0,0,1,.82,4.23,9.82,9.82,0,0,1-.82,4.08,9,9,0,0,1-2.33,3.12,10.61,10.61,0,0,1-3.57,2,14,14,0,0,1-4.53.71h-5.53Zm5.53-16.8a7.18,7.18,0,0,0,2.45-.44,5.23,5.23,0,0,0,1.84-1.15,4.75,4.75,0,0,0,1.16-1.75A6,6,0,0,0,1316,370a6.83,6.83,0,0,0-.39-2.36,5.1,5.1,0,0,0-1.16-1.84,5,5,0,0,0-1.84-1.21,6.73,6.73,0,0,0-2.45-.45h-5.53v11.39Z"/><path class="cls-44" d="M1340.6,368.07v19.78h7.12v4.43h-20v-4.43h7.45V372.52h-7.45v-4.45Zm-5.66-7.46a2.82,2.82,0,0,1,.65-.95,2.92,2.92,0,0,1,1-.59,3.65,3.65,0,0,1,1.28-.22,3,3,0,0,1,2,.62,2.62,2.62,0,0,1,.53,3.29,2.4,2.4,0,0,1-1.44,1,2.26,2.26,0,0,1-1.11.56,2.9,2.9,0,0,1-1.44-.11,2.18,2.18,0,0,1-1.22-.88,2.75,2.75,0,0,1-.41-1.49A3.16,3.16,0,0,1,1334.94,360.61Z"/><path class="cls-44" d="M1368.1,357.91v29.94h7.34v4.43h-20.38v-4.43h7.65V362.37h-7.65v-4.46Z"/><path class="cls-44" d="M1395.6,357.91v29.94h7.34v4.43h-20.39v-4.43h7.66V362.37h-7.66v-4.46Z"/><path class="cls-44" d="M1424.09,391.19c-.1-.42-.18-.86-.26-1.33a9.79,9.79,0,0,1-1.26,1.11,8.36,8.36,0,0,1-1.58.91,9.21,9.21,0,0,1-1.88.62,9.89,9.89,0,0,1-2.17.23,10.37,10.37,0,0,1-3.43-.55,8.05,8.05,0,0,1-2.65-1.51,6.45,6.45,0,0,1-1.74-2.27,6.8,6.8,0,0,1-.61-2.88,7.54,7.54,0,0,1,.79-3.52,6.71,6.71,0,0,1,2.32-2.54,10.66,10.66,0,0,1,3.48-1.43,20.14,20.14,0,0,1,4.68-.49h3.9V375.9a4.26,4.26,0,0,0-.33-1.7,3.91,3.91,0,0,0-.93-1.32,4.57,4.57,0,0,0-1.57-.86,7,7,0,0,0-2.14-.3,6.07,6.07,0,0,0-1.91.27,3.77,3.77,0,0,0-1.36.74,2.52,2.52,0,0,0-.79,1,3.35,3.35,0,0,0-.26,1.3H1409a6.57,6.57,0,0,1,.69-2.79,7,7,0,0,1,2-2.37,9.45,9.45,0,0,1,3.1-1.67,13.34,13.34,0,0,1,4.22-.62,14.43,14.43,0,0,1,4,.53,9.41,9.41,0,0,1,3.19,1.56,7.15,7.15,0,0,1,2.1,2.6A8.25,8.25,0,0,1,1429,376v10.76a16.34,16.34,0,0,0,.24,2.94,8.66,8.66,0,0,0,.68,2.25v.38h-5.46A4.45,4.45,0,0,1,1424.09,391.19Zm-4.16-3a7.85,7.85,0,0,0,1.64-.69,6,6,0,0,0,1.28-1,4.45,4.45,0,0,0,.83-1.12v-4.48h-3.45a12.18,12.18,0,0,0-3,.33,5.22,5.22,0,0,0-2,.93,3.16,3.16,0,0,0-1,1.23,3.8,3.8,0,0,0-.33,1.61,3.45,3.45,0,0,0,.27,1.37,2.86,2.86,0,0,0,.79,1.09,3.61,3.61,0,0,0,1.27.7,5.36,5.36,0,0,0,1.79.26A6.88,6.88,0,0,0,1419.93,388.16Z"/><path class="cls-44" d="M1455.77,367.8a10,10,0,0,1,1.91.43l-.76,5.28a23.64,23.64,0,0,0-2.43-.4,21.11,21.11,0,0,0-2.38-.14,9.87,9.87,0,0,0-2.41.27,6.11,6.11,0,0,0-1.91.83,5.49,5.49,0,0,0-1.52,1.36,7.89,7.89,0,0,0-1,1.9v14.95h-5.35V368.07h5l.22,3.36,0,.56a11,11,0,0,1,3.55-3.2,9.12,9.12,0,0,1,4.57-1.17A17.18,17.18,0,0,1,1455.77,367.8Z"/><circle class="cls-45" cx="1152.23" cy="375.3" r="52.96"/><polygon class="cls-46" points="1134.65 388.45 1127.23 376.64 1151.13 343.13 1166.6 343.13 1166.6 343.22 1134.65 388.45"/><polygon class="cls-46" points="1134.65 388.45 1139.04 373.89 1161.84 373.89 1161.84 388.45 1134.65 388.45"/><polygon class="cls-47" points="1161.84 407.86 1161.84 373.89 1161.93 373.89 1177.04 386.44 1177.04 407.86 1161.84 407.86"/></g></g></svg>