<svg xmlns="http://www.w3.org/2000/svg" xmlns:xlink="http://www.w3.org/1999/xlink" viewBox="0 0 1500.93 750"><defs><style>.cls-1{fill:url(#linear-gradient);}.cls-10,.cls-11,.cls-12,.cls-13,.cls-14,.cls-15,.cls-16,.cls-17,.cls-18,.cls-19,.cls-2,.cls-20,.cls-21,.cls-22,.cls-23,.cls-24,.cls-25,.cls-26,.cls-27,.cls-28,.cls-29,.cls-3,.cls-30,.cls-31,.cls-32,.cls-33,.cls-34,.cls-35,.cls-36,.cls-37,.cls-38,.cls-39,.cls-4,.cls-40,.cls-41,.cls-42,.cls-43,.cls-44,.cls-5,.cls-6,.cls-7,.cls-8,.cls-9{fill:none;stroke-miterlimit:10;}.cls-10,.cls-11,.cls-12,.cls-13,.cls-14,.cls-15,.cls-16,.cls-17,.cls-18,.cls-19,.cls-2,.cls-20,.cls-21,.cls-22,.cls-23,.cls-24,.cls-25,.cls-26,.cls-27,.cls-28,.cls-29,.cls-3,.cls-30,.cls-31,.cls-32,.cls-33,.cls-34,.cls-35,.cls-36,.cls-37,.cls-38,.cls-39,.cls-4,.cls-40,.cls-41,.cls-42,.cls-43,.cls-5,.cls-6,.cls-7,.cls-8,.cls-9{stroke:#fff;}.cls-2{stroke-width:0.5px;opacity:0;}.cls-3{stroke-width:0.51px;opacity:0.02;}.cls-4{stroke-width:0.51px;opacity:0.05;}.cls-5{stroke-width:0.52px;opacity:0.07;}.cls-6{stroke-width:0.52px;opacity:0.1;}.cls-7{stroke-width:0.53px;opacity:0.12;}.cls-8{stroke-width:0.54px;opacity:0.15;}.cls-9{stroke-width:0.54px;opacity:0.17;}.cls-10{stroke-width:0.55px;opacity:0.2;}.cls-11{stroke-width:0.55px;opacity:0.22;}.cls-12{stroke-width:0.56px;opacity:0.24;}.cls-13{stroke-width:0.57px;opacity:0.27;}.cls-14{stroke-width:0.57px;opacity:0.29;}.cls-15{stroke-width:0.58px;opacity:0.32;}.cls-16{stroke-width:0.58px;opacity:0.34;}.cls-17{stroke-width:0.59px;opacity:0.37;}.cls-18{stroke-width:0.6px;opacity:0.39;}.cls-19{stroke-width:0.6px;opacity:0.41;}.cls-20{stroke-width:0.61px;opacity:0.44;}.cls-21{stroke-width:0.61px;opacity:0.46;}.cls-22{stroke-width:0.62px;opacity:0.49;}.cls-23{stroke-width:0.63px;opacity:0.51;}.cls-24{stroke-width:0.63px;opacity:0.54;}.cls-25{stroke-width:0.64px;opacity:0.56;}.cls-26{stroke-width:0.64px;opacity:0.59;}.cls-27{stroke-width:0.65px;opacity:0.61;}.cls-28{stroke-width:0.66px;opacity:0.63;}.cls-29{stroke-width:0.66px;opacity:0.66;}.cls-30{stroke-width:0.67px;opacity:0.68;}.cls-31{stroke-width:0.68px;opacity:0.71;}.cls-32{stroke-width:0.68px;opacity:0.73;}.cls-33{stroke-width:0.69px;opacity:0.76;}.cls-34{stroke-width:0.69px;opacity:0.78;}.cls-35{stroke-width:0.7px;opacity:0.8;}.cls-36{stroke-width:0.71px;opacity:0.83;}.cls-37{stroke-width:0.71px;opacity:0.85;}.cls-38{stroke-width:0.72px;opacity:0.88;}.cls-39{stroke-width:0.72px;opacity:0.9;}.cls-40{stroke-width:0.73px;opacity:0.93;}.cls-41{stroke-width:0.74px;opacity:0.95;}.cls-42{stroke-width:0.74px;opacity:0.98;}.cls-43{stroke-width:0.75px;}.cls-44{stroke-width:1.56px;stroke:url(#linear-gradient-2);}.cls-45{fill:#fff;}.cls-46{fill:#e6e6e6;}</style><linearGradient id="linear-gradient" x1="0.68" y1="375" x2="1500.68" y2="375" gradientUnits="userSpaceOnUse"><stop offset="0" stop-color="#fff"/><stop offset="1"/></linearGradient><linearGradient id="linear-gradient-2" x1="1263.6" y1="394.83" x2="1437.8" y2="394.83" gradientTransform="translate(2694.06 752) rotate(180)" gradientUnits="userSpaceOnUse"><stop offset="0" stop-color="#e6e6e6"/><stop offset="1" stop-color="#fff"/></linearGradient></defs><g id="Layer_2" data-name="Layer 2"><g id="Layer_1-2" data-name="Layer 1"><rect class="cls-1" x="0.68" width="1500" height="750"/></g><g id="Layer_2-2" data-name="Layer 2"><path class="cls-2" d="M.68,325c107-45.32,245.91-83,344.51-19,91.7,59.52,88.74,168.21,156.32,180,112.25,19.59,201.23-266.19,307.67-251,102.14,14.57,80.38,286.32,219.05,354,81.56,39.81,220.14,9.76,466-204"/><path class="cls-3" d="M.67,327.72c108.47-41.91,246.74-77.62,345.67-16.2,94,58.35,93.47,160.7,163.39,173.2,111.41,19.92,199.42-257.93,305.94-243.15,101.26,14.2,80.36,279.19,217.14,344.81,81.1,38.91,218.72,9.85,461.56-196.15"/><path class="cls-4" d="M.66,330.44c110-38.5,247.64-72.28,346.84-13.39C443.78,374.21,445.7,470.23,518,483.44c110.58,20.22,197.6-249.66,304.22-235.29,100.37,13.81,80.34,272,215.21,335.61,80.65,38,217.31,9.93,457.15-188.3"/><path class="cls-5" d="M.64,333.16c111.48-35.09,248.61-67,348-10.59,98.65,56,102.93,145.66,177.52,159.59C635.92,502.65,722,240.54,828.67,254.72,928.18,268,909,519.61,1042,581.13c80.2,37.11,215.89,10,452.72-180.43"/><path class="cls-6" d="M.63,335.88c113-31.68,249.62-61.73,349.17-7.78,101.07,54.77,107.66,138.12,184.59,152.78,108.92,20.74,194-233.43,300.77-219.59,98.64,12.8,80.33,257.73,211.38,317.22,79.76,36.21,214.47,10.11,448.3-172.58"/><path class="cls-7" d="M.62,338.6c114.49-28.28,250.69-56.53,350.34-5,103.52,53.56,112.38,130.59,191.65,146,108.09,21,192.22-225.24,299-211.73,97.75,12.35,80.33,250.55,209.46,308,79.31,35.3,213.05,10.2,443.88-164.73"/><path class="cls-8" d="M.61,341.32c116-24.87,251.8-51.37,351.5-2.17,106,52.32,117.11,123.05,198.72,139.17,107.27,21.18,190.41-217,297.33-203.88C945,286.36,928.5,517.81,1055.7,573.27c78.88,34.39,211.63,10.29,439.46-156.88"/><path class="cls-9" d="M.6,344c117.49-21.46,253-46.27,352.66.63C461.84,395.74,475.1,460.17,559.05,477,665.5,498.42,747.66,268.2,854.65,281c96,11.5,80.38,236.18,205.62,289.64,78.46,33.48,210.21,10.37,435.05-149"/><path class="cls-10" d="M.58,346.76c119-18.05,254.18-41.21,353.84,3.44C465.58,400,481,458.14,567.28,475.76,672.9,497.31,754.07,275.12,861.15,287.59c95.11,11.06,80.41,229,203.7,280.43,78,32.58,208.79,10.47,430.62-141.17"/><path class="cls-11" d="M.57,349.48c120.5-14.64,255.42-36.2,355,6.24C469.36,404.21,486.86,456.11,575.5,474.48c104.8,21.72,185-192.43,292.14-180.32,94.23,10.65,80.46,221.76,201.79,271.24C1147,597.06,1276.8,576,1495.63,432.09"/><path class="cls-12" d="M.56,352.2c122-11.23,256.7-31.24,356.16,9,116.45,47.16,136,92.82,227,112C687.71,495.07,766.9,289,874.14,300.73c93.35,10.23,80.51,214.53,199.87,262,77.19,30.74,206,10.64,421.78-125.46"/><path class="cls-13" d="M.55,354.91c123.51-7.82,258-26.31,357.33,11.86C477,412.56,498.63,452,591.94,471.91c103.18,22,181.37-176,288.7-164.61,92.46,9.82,80.57,207.29,197.94,252.86C1155.37,590,1283.12,570.89,1496,442.55"/><path class="cls-14" d="M.53,357.63c125-4.41,259.36-21.45,358.5,14.66C480.9,416.68,504.52,450,600.16,470.63c102.37,22.14,179.56-167.78,287-156.75,91.58,9.4,80.65,200,196,243.66,76.39,28.88,203.12,10.81,412.95-109.76"/><path class="cls-15" d="M.52,360.35c126.52-1,260.73-16.63,359.66,17.47,124.62,42.94,150.23,70.07,248.2,91.53,101.56,22.25,177.75-159.56,285.25-148.9,90.69,9,80.73,192.76,194.11,234.46,76,28,201.7,10.91,408.52-101.9"/><path class="cls-16" d="M.51,363.07c128,2.41,262.12-11.85,360.83,20.27,127.39,41.46,155,62.48,255.26,84.73,100.76,22.36,175.94-151.34,283.53-141,89.8,8.6,80.82,185.48,192.19,225.27,75.59,27,200.28,11,404.1-94"/><path class="cls-17" d="M.5,365.79c129.52,5.82,263.54-7.12,362,23.08,130.2,39.92,159.7,54.87,262.33,77.92C724.77,489.24,799,323.68,906.62,333.6c88.92,8.19,80.93,178.18,190.28,216.07,75.21,26.06,198.86,11.08,399.68-86.19"/><path class="cls-18" d="M.49,368.51c131,9.22,265-2.43,363.15,25.88,133,38.35,164.44,47.27,269.4,71.12,99.15,22.54,172.32-134.88,280.08-125.34,88,7.8,81,170.87,188.35,206.88,74.83,25.11,197.45,11.16,395.27-78.34"/><path class="cls-19" d="M.47,371.23C133,383.86,266.89,373.45,364.8,399.91,500.67,436.64,534,439.56,641.26,464.23c98.35,22.62,170.5-126.65,278.35-117.49,87.15,7.41,81.16,163.54,186.44,197.69,74.46,24.15,196,11.25,390.84-70.49"/><path class="cls-20" d="M.46,374c134,16,267.88,6.83,365.49,31.49,138.73,35.05,173.92,32,283.53,57.51C747,485.64,818.17,344.54,926.11,353.32c86.26,7,81.29,156.19,184.52,188.48,74.09,23.19,194.61,11.35,386.42-62.63"/><path class="cls-21" d="M.45,376.67C136,396.12,269.8,388.07,367.11,411c141.6,33.32,178.65,24.39,290.59,50.71,96.76,22.75,166.88-110.17,274.91-101.78,85.37,6.63,81.43,148.82,182.6,179.29,73.72,22.21,193.19,11.43,382-54.78"/><path class="cls-22" d="M.44,379.39c137,22.86,270.83,15.93,367.82,37.1,144.49,31.53,183.4,16.74,297.66,43.9,96,22.81,165.07-101.92,273.18-93.93,84.48,6.25,81.58,141.44,180.68,170.1,73.37,21.22,191.78,11.52,377.59-46.93"/><path class="cls-23" d="M.43,382.11c138.54,26.26,272.32,20.43,369,39.9,147.39,29.69,188.15,9.09,304.73,37.1C769.31,482,837.39,365.44,945.6,373c83.59,5.87,81.74,134,178.76,160.9,73,20.22,190.36,11.6,373.17-39.07"/><path class="cls-24" d="M.41,384.83c140.05,29.67,273.81,24.89,370.16,42.71,150.29,27.78,192.9,1.43,311.79,30.29,94.38,22.91,161.44-85.42,269.74-78.22,82.7,5.5,81.9,126.61,176.84,151.71,72.68,19.21,188.94,11.69,368.74-31.22"/><path class="cls-25" d="M.4,387.55C142,420.63,275.7,416.88,371.72,433.06c153.2,25.83,197.65-6.24,318.86,23.49,93.59,22.95,159.62-77.16,268-70.37,81.81,5.13,82.08,119.17,174.93,142.52,72.33,18.18,187.52,11.78,364.32-23.37"/><path class="cls-26" d="M.39,390.27C143.44,426.76,277.18,424,372.87,438.59,529,462.39,575.28,424.67,698.8,455.27c92.8,23,157.81-68.89,266.29-62.51,80.92,4.76,82.26,111.7,173,133.31,72,17.15,186.11,11.87,359.91-15.51"/><path class="cls-27" d="M.38,393c144.55,39.9,278.28,38.09,373.65,51.12,159,21.72,207.16-21.6,333,9.88,92,23,156-60.62,264.56-54.66,80,4.4,82.46,104.21,171.09,124.12,71.68,16.1,184.69,12,355.49-7.66"/><path class="cls-28" d="M.36,395.71c146.07,43.3,279.78,42.44,374.82,53.92,161.94,19.58,211.92-29.29,340.06,3.08,91.23,23,154.18-52.35,262.84-46.81,79.14,4,82.65,96.7,169.17,114.93,71.35,15,183.27,12,351.07.19"/><path class="cls-29" d="M.35,398.43c147.57,46.71,281.26,46.75,376,56.73,164.84,17.36,216.69-37,347.13-3.73,90.44,23.06,152.36-44.07,261.12-38.95,78.25,3.68,82.85,89.16,167.25,105.73,71,13.94,181.85,12.13,346.64,8"/><path class="cls-30" d="M.34,401.15c149.07,50.12,282.73,51,377.15,59.53C545.23,475.77,598.94,416,731.68,450.15c89.66,23.08,150.55-35.78,259.39-31.1,77.37,3.33,83.06,81.61,165.34,96.54,70.72,12.83,180.43,12.21,342.22,15.9"/><path class="cls-31" d="M.33,403.87c150.57,53.53,284.2,55.3,378.31,62.34C549.27,479,604.86,413.76,739.91,448.87c88.87,23.1,148.72-27.49,257.66-23.25,76.47,3,83.27,74,163.41,87.34,70.41,11.7,179,12.31,337.81,23.76"/><path class="cls-32" d="M.32,406.59C152.39,463.53,286,466.13,379.79,471.73c173.52,10.35,231-60.18,368.34-24.14C836.22,470.7,895,428.4,1004.07,432.2c75.58,2.63,83.48,66.41,161.49,78.14,70.1,10.55,177.6,12.4,333.39,31.61"/><path class="cls-33" d="M.3,409.3c153.58,60.35,287.15,72.94,380.65,68,176.3-9.41,235.76-67.93,375.4-31,87.31,23.12,145.09-10.88,254.21-7.53,74.69,2.29,83.7,58.77,159.58,69,69.79,9.36,176.18,12.48,329,39.46"/><path class="cls-34" d="M.29,412C155.37,475.78,289,488.38,382.1,482.78,561.09,472,622.64,407.1,764.57,445c86.53,23.13,143.27-2.57,252.49.32,73.8,2,83.91,51.11,157.66,59.76,69.49,8.15,174.76,12.57,324.54,47.31"/><path class="cls-35" d="M.28,414.74c156.59,67.17,290.16,79.72,383,73.56,181.68-12.05,245.32-83.44,389.53-44.56,85.75,23.13,141.46,5.75,250.76,8.17,72.92,1.62,84.13,43.42,155.74,50.57,69.19,6.9,173.35,12.65,320.13,55.17"/><path class="cls-36" d="M.27,417.46c158.09,70.58,291.61,83,384.14,76.37,184.4-13.28,250.11-91.23,396.6-51.37,85,23.13,139.64,14.07,249,16,72,1.29,84.34,35.69,153.82,41.36,68.88,5.63,171.93,12.75,315.71,63"/><path class="cls-37" d="M.26,420.18c159.59,74,293,86.3,385.3,79.17,187.14-14.45,254.9-99,403.67-58.17,84.2,23.12,137.83,22.4,247.32,23.88,71.13,1,84.54,27.94,151.9,32.17,68.56,4.3,170.51,12.84,311.29,70.88"/><path class="cls-38" d="M.24,422.9c161.1,77.39,294.16,84.6,386.48,82,190.45-5.41,259.68-106.82,410.73-65,83.43,23.12,136,30.74,245.59,31.73,70.25.64,84.74,20.17,150,23,68.25,2.94,169.09,12.92,306.86,78.73"/><path class="cls-39" d="M.23,425.62c162.6,80.8,295.52,88.71,387.64,84.78,193.2-8.25,264.48-114.64,417.8-71.78,82.66,23.11,134.2,39.09,243.87,39.59,69.36.31,84.94,15.78,148.07,13.78,67.9-2.16,167.67,13,302.44,86.58"/><path class="cls-40" d="M.22,428.34c164.1,84.21,296.87,92.82,388.8,87.59C585,504.78,658.31,393.46,813.89,437.34c81.89,23.1,132.39,46.78,242.15,47.44,68.46.41,85.14,7.17,146.14,4.59,67.53-2.87,166.26,13.09,298,94.43"/><path class="cls-41" d="M.21,431.06c165.6,87.62,298.2,96.91,390,90.39,198.62-14.11,274.08-130.3,431.93-85.39,81.12,23.08,130.58,55.8,240.42,55.29,67.58-.31,85.25-3.34,144.23-4.61C1274,485.3,1371.6,499.93,1500.37,589"/><path class="cls-42" d="M.19,433.78c167.12,91,299.52,101,391.14,93.2,201.29-17.14,279-138.36,439-92.2,80.38,23,128.77,64.29,238.7,63.15,66.7-.55,85.37-11.24,142.31-13.81,66.86-3,163.42,13.27,289.18,110.15"/><path class="cls-43" d="M.18,436.5c168.62,94.43,300.82,105.07,392.3,96,203.93-20.21,283.71-146,446.07-99,79.58,23.05,127,72.55,237,71,65.82-.93,85.49-19.16,140.4-23,66.46-4.65,162,13.36,284.76,118"/><g id="Layer_2-3" data-name="Layer 2"><g id="Layer_1-2-2" data-name="Layer 1-2"><circle class="cls-44" cx="1343.36" cy="357.17" r="86.33"/><polygon class="cls-45" points="1314.7 378.6 1302.61 359.35 1341.56 304.74 1366.78 304.74 1366.78 304.89 1314.7 378.6"/><polygon class="cls-45" points="1314.7 378.6 1321.86 354.88 1359.02 354.88 1359.02 378.6 1314.7 378.6"/><polygon class="cls-46" points="1359.02 410.24 1359.02 354.88 1359.17 354.88 1383.79 375.32 1383.79 410.24 1359.02 410.24"/></g></g></g></g></svg>